<svg id="Layer_2" data-name="Layer 2" xmlns="http://www.w3.org/2000/svg" xmlns:xlink="http://www.w3.org/1999/xlink" viewBox="0 0 138.15 121.66"><defs><style>.cls-1{fill:none;stroke:#231f20;stroke-miterlimit:10;}.cls-2{font-size:72px;fill:#231f20;font-family:FreestyleScript-Regular, Freestyle Script;}.cls-3{fill:url(#linear-gradient);}</style><linearGradient id="linear-gradient" x1="187.74" y1="520.72" x2="237.36" y2="578.03" gradientUnits="userSpaceOnUse"><stop offset="0.07" stop-color="#423f44"/><stop offset="0.24" stop-color="#d7a9c9"/><stop offset="0.51" stop-color="#d8c2df"/><stop offset="0.65" stop-color="#bd95c4"/><stop offset="0.77" stop-color="#423f44"/></linearGradient></defs><title>logo</title><path class="cls-1" d="M173.63,614.32l55.88.26L180.64,620l91.8-.68-28.89-4.49c7.6.6,21.11.37,30.92-8.27,19.23-16.92,15.26-58.29-8.13-78.65-24.71-21.51-59.9-9.83-61.72-9.19" transform="translate(-168.62 -514.52)"/><path class="cls-1" d="M239.17,522.06c-2.42-.78-24.1-7.38-43.92,6.51-21,14.75-21.15,39.4-21.12,41.49" transform="translate(-168.62 -514.52)"/><path class="cls-1" d="M179.14,539.6a54.58,54.58,0,0,0-8.84,20.09,55.29,55.29,0,0,0,1.78,29.15" transform="translate(-168.62 -514.52)"/><text class="cls-2" transform="translate(23.41 94.65)">Gabi</text><path class="cls-3" d="M174.74,516.72c5.6,3.61,10.3,6.27,13.59,8,10.31,5.55,15.46,8.33,16,8.54a10.69,10.69,0,0,1,3.15,1.75,11,11,0,0,1,1.64,1.63c2.9,3.43,3.24,5.86,4.71,5.94.41,0,.83-.24,1.66-.77,1.56-1,1.84-1.86,2.77-2.67,1.67-1.46,4.62-2.11,6.55-.92a4.38,4.38,0,0,1,1.69,2.06l2.22.93a5.16,5.16,0,0,0-2.26,1c-1,.71-2.1,2.13-1.76,2.69.55.91,4.33-1.51,10.56-2,1.87-.14,1.58.08,6.27.19a102.63,102.63,0,0,0,11.65-.17c6.68-.58,11.14-2.06,11.34-1.45.11.36-1.28,1.17-2.28,1.57a11.93,11.93,0,0,1-3.26.63l-3.18.4c3.06.27,3.71.56,3.72.78s-1.57.69-2.3.81a9.21,9.21,0,0,1-2.39.09c.29.18.64.46.61.75-.05.52-1.26.78-1.82.9a10.68,10.68,0,0,1-4.49-.06c2.26.68,2.71,1.09,2.68,1.34,0,.41-1.34.61-1.88.66a5.74,5.74,0,0,1-2.34-.28c.87.51,1.27.89,1.2,1.15s-1.39.48-3.85.25c.78.46,1.14.81,1.07,1s-1.34.38-3.72.06c.3.18,1.17.7,1.08,1.11s-1.37.54-2,.51a5.43,5.43,0,0,1-2.6-.83c.88.64,1.8,1.4,1.64,1.76s-.92.19-1.43.12a7.82,7.82,0,0,1-3.08-1.05c.05,0,1.13,1,.9,1.47s-1.41.27-2,.09a4.18,4.18,0,0,1-1.73-1c.08.13.84,1.3.54,1.6s-1.07-.09-2.08-.81c.36,1,.41,1.84.16,2s-.87-.43-1.45-1.36c0,.14.51,1.76.11,2s-1-.51-1.78-1.59c.23,1.27.17,2.27-.16,2.38s-1-.69-1.62-2c-.16,1.39-.52,2.34-.9,2.36s-.87-1.41-.92-1.61c.1,1.22-.52,2-1,2s-.91-.56-1.11-1.36a1,1,0,0,1-.55,1.15,1,1,0,0,1-1.26-.85,1,1,0,0,1-.63,1.06c-.4.08-1-.37-1-1.12a.82.82,0,0,1-.73.73.85.85,0,0,1-.72-1,.67.67,0,0,1-.64.48.69.69,0,0,1-.42-.93,57.49,57.49,0,0,1-7,5.65c-1.54,1.07-3,2-4.48,2.81l-5.86,5.9a30.29,30.29,0,0,1-3.14,3A33.32,33.32,0,0,1,182.28,581a31.11,31.11,0,0,0,5-1.71,31.59,31.59,0,0,0,6.84-4.13,2.9,2.9,0,0,1,.13-1.16,2.84,2.84,0,0,1,1.33-1.51q-.93-.06-1-.36c-.1-.35.6-.93,2.09-1.75-.51-.28-.64-.55-.67-.74-.13-.79,1.24-1.52,1-2a.49.49,0,0,0-.38-.23,1,1,0,0,1-1.24.42.89.89,0,0,1-.42-.54,1.75,1.75,0,0,1-1.33.3,1.59,1.59,0,0,1-.92-.52,1.52,1.52,0,0,1-1.67.77,1.5,1.5,0,0,1-.94-.86c-1.82,1.05-2.89,1.4-3.22,1.05-.13-.14-.14-.39,0-.76-.33,0-.86.1-1.5.22-2.9.54-3.7,1.36-7,2.35a19.25,19.25,0,0,1-4,.81,17,17,0,0,1-2.31,0,52.78,52.78,0,0,0,6.8-1.67c2.79-.88,3.65-1.4,6.89-2.7,4.11-1.64,8.44-3.27,12.88-4.7a14.67,14.67,0,0,0,3.77-1.76,12,12,0,0,0,3.27-3,11.57,11.57,0,0,0,1.8-3.59l-.68-1c-.19.2-1.37,1.51-1.73,1.28s0-1.18.2-1.59c-.67,1-1.41,1.61-1.71,1.46s-.26-1,.13-2.13c-.7.68-1.89,1.74-2.17,1.52-.1-.07-.21-.39.7-2.09-1.15.78-2.08,1.19-2.32.94s.63-1.62.77-1.83c-.8.7-1.61.91-1.83.68s0-1,.62-1.74c-1.2.6-2.27.79-2.51.45s.31-1.4,1.51-2.45c-1.31.95-2,1.35-2.21,1.19s.38-1.11,1.68-2.76c-1.66.6-3,.82-3.14.47s.72-1.24,2.07-2.2c-1.79.31-3.93.59-4,.2s2.12-1.44,3.77-2.14a17.76,17.76,0,0,1-3.1.22c-1,0-1.84,0-1.9-.29s.49-.67,3.19-1.71c-.64,0-1.16.07-1.5.1-1.59.13-2.2.26-3-.06-.27-.11-.76-.32-.75-.58,0-.48,1.66-.85,3.25-1.12a6.38,6.38,0,0,1-2.74-.06c-.87-.21-2.24-.74-2.19-1.14s.76-.59,4-.68a15.19,15.19,0,0,0-2.23-.38,10.29,10.29,0,0,1-3.3-.49c-.17-.08-1.26-.55-1.2-.91s.72-.51,3.34-.48q-5.41-1.8-5.28-2.52c.06-.33,1-.49,2.89-.47q-5.93-2.53-5.71-3.26c.08-.29.88-.37,2.39-.24l-.68-.17a7.23,7.23,0,0,1-2.67-1.11c-.34-.26-1.44-1.09-1.24-1.9a1.37,1.37,0,0,1,.75-.78q-2.93-2.1-2.61-2.88c.08-.2.32-.33.71-.4a4.25,4.25,0,0,1-2.35-3.45Z" transform="translate(-168.62 -514.52)"/></svg>